<?xml version="1.0" encoding="utf-8"?>
<!-- Generator: Adobe Illustrator 16.0.0, SVG Export Plug-In . SVG Version: 6.00 Build 0)  -->
<!DOCTYPE svg PUBLIC "-//W3C//DTD SVG 1.1//EN" "http://www.w3.org/Graphics/SVG/1.1/DTD/svg11.dtd">
<svg version="1.1" id="Layer_1" xmlns="http://www.w3.org/2000/svg" xmlns:xlink="http://www.w3.org/1999/xlink" x="0px" y="0px"
	 width="360px" height="360px" viewBox="0 0 360 360" enable-background="new 0 0 360 360" xml:space="preserve">
<defs>
	<filter id="Adobe_OpacityMaskFilter" filterUnits="userSpaceOnUse" x="26.416" y="5.304" width="307.167" height="446.588">
		<feColorMatrix  type="matrix" values="1 0 0 0 0  0 1 0 0 0  0 0 1 0 0  0 0 0 1 0"/>
	</filter>
</defs>
<mask maskUnits="userSpaceOnUse" x="26.416" y="5.304" width="307.167" height="446.588" id="SVGID_1_">
	<g filter="url(#Adobe_OpacityMaskFilter)">
		<linearGradient id="SVGID_2_" gradientUnits="userSpaceOnUse" x1="181.835" y1="2.293" x2="181.8349" y2="355.8872">
			<stop  offset="0.2849" style="stop-color:#FFFFFF"/>
			<stop  offset="0.4632" style="stop-color:#C1C3C5"/>
			<stop  offset="0.728" style="stop-color:#757679"/>
			<stop  offset="0.9127" style="stop-color:#3F3F40"/>
			<stop  offset="1" style="stop-color:#000000"/>
		</linearGradient>
		<rect x="9.583" y="2.293" fill="url(#SVGID_2_)" width="344.504" height="353.594"/>
	</g>
</mask>
<g mask="url(#SVGID_1_)">
	<g>
		<path fill="#ED1C24" d="M220.359,258.7c-3.958,3.55-7.76,7.246-11.398,11.073c1.95,4.193,2.844,6.266,4.48,10.402
			c4.246-4.338,6.501-6.477,11.34-10.693C223.17,265.209,222.281,263.05,220.359,258.7z"/>
		<path fill="#ED1C24" d="M295.384,277.346c-5.925,2.352-11.726,4.811-17.51,7.455c0.34,4.128,0.438,6.152,0.504,10.149
			c5.7-2.637,11.512-4.952,17.384-7.214C295.744,283.652,295.671,281.572,295.384,277.346z"/>
		<path fill="#ED1C24" d="M294.304,309.561c0.509-3.587,0.719-5.416,1.013-9.134c-5.813,2.187-11.571,4.408-17.216,6.968
			c-0.236,3.649-0.413,5.449-0.864,8.987C282.842,313.866,288.543,311.693,294.304,309.561z"/>
		<path fill="#ED1C24" d="M332.453,292.477c-5.998,1.282-11.963,2.609-17.873,4.2c-0.306,2.813-0.493,4.197-0.93,6.92
			c5.885-1.563,11.815-2.854,17.782-4.101C331.9,296.735,332.104,295.327,332.453,292.477z"/>
		<path fill="#ED1C24" d="M315.408,283.832c5.975-1.675,11.989-3.083,18.047-4.444c0.186-5.239,0.174-7.937-0.07-13.441
			c-6.105,1.453-12.171,2.953-18.18,4.723C315.496,276.057,315.536,278.686,315.408,283.832z"/>
		<path fill="#ED1C24" d="M152.995,304.949c-1.452,4.444-2.094,6.638-3.208,10.986c4.07,4.743,5.93,7.155,9.35,12.004
			c1.146-4.223,1.8-6.364,3.292-10.665C158.986,312.304,157.104,309.832,152.995,304.949z"/>
		<path fill="#ED1C24" d="M182.574,254.144c-3.628,5.036-7.059,10.106-10.361,15.336c3.36,4.54,4.916,6.812,7.802,11.357
			c3.212-5.098,6.746-9.935,10.357-14.78C187.489,261.302,185.937,258.911,182.574,254.144z"/>
		<path fill="#ED1C24" d="M147.167,327.865c-0.823,4.572-1.136,6.875-1.591,11.316c3.971,4.52,5.791,6.811,9.105,11.451
			c0.525-4.355,0.867-6.594,1.74-11.063C153.047,334.881,151.218,332.537,147.167,327.865z"/>
		<path fill="#ED1C24" d="M163.336,279.997c-2.516,4.984-3.646,7.47-5.69,12.409c3.365,4.105,6.531,8.352,9.5,12.73
			c2.063-4.762,3.204-7.158,5.729-11.964C169.905,288.65,166.721,284.257,163.336,279.997z"/>
		<path fill="#ED1C24" d="M256.662,265.762c-4.532,2.811-8.952,5.778-13.264,8.9c1.333,4.746,1.899,7.089,2.854,11.716
			c4.997-3.519,7.62-5.239,13.162-8.563C258.501,273.069,257.949,270.655,256.662,265.762z"/>
		<path fill="#ED1C24" d="M239.063,261.21c4.34-3.273,8.807-6.399,13.388-9.366c-1.887-5.512-2.954-8.316-5.332-14
			c-4.589,3.12-9.06,6.412-13.442,9.789C236.028,253.245,237.133,255.88,239.063,261.21z"/>
		<path fill="#ED1C24" d="M233.11,296.46c-1.211-5.441-1.952-8.193-3.71-13.775c-4.854,4.182-7.121,6.311-11.332,10.477
			c1.751,5.553,2.516,8.196,3.788,13.483C226.059,302.522,228.31,300.47,233.11,296.46z"/>
		<path fill="#ED1C24" d="M269.067,241.984c5.917-3.105,11.856-6.03,17.931-8.849c-1.546-5.098-3.253-10.15-5.113-15.148
			c-6.137,2.921-12.153,6.059-18.035,9.421C266.182,233.341,267.218,236.255,269.067,241.984z"/>
		<path fill="#ED1C24" d="M236.56,320.654c-0.279-4.659-0.511-7.015-1.188-11.795c-4.753,3.89-6.973,5.872-11.133,9.872
			c0.729,4.672,0.985,6.982,1.34,11.55C229.677,326.373,231.871,324.436,236.56,320.654z"/>
		<path fill="#ED1C24" d="M313.868,256.539c6.079-1.827,12.15-3.504,18.306-5.076c-0.674-5.52-1.574-11.013-2.672-16.469
			c-6.192,1.716-12.309,3.54-18.414,5.509C312.22,245.812,313.154,251.164,313.868,256.539z"/>
		<path fill="#ED1C24" d="M262.312,303.207c-0.16-4.85-0.329-7.312-0.886-12.32c-5.493,3.192-8.1,4.85-13.05,8.245
			c0.609,4.894,0.813,7.309,1.032,12.062C254.3,307.898,256.873,306.296,262.312,303.207z"/>
		<path fill="#ED1C24" d="M276.227,271.449c5.839-2.766,11.69-5.366,17.681-7.841c-0.774-5.208-1.746-10.387-2.933-15.52
			c-6.029,2.64-11.932,5.395-17.816,8.332C274.669,262.55,275.281,265.56,276.227,271.449z"/>
		<path fill="#ED1C24" d="M307.222,225.006c6.149-2.13,12.307-4.121,18.542-6.015c-1.311-5.609-2.802-11.186-4.468-16.708
			c-6.412,2.109-12.748,4.403-19.005,6.886C303.982,214.436,305.704,219.694,307.222,225.006z"/>
		<path fill="#ED1C24" d="M261.515,324.244c0.39-3.481,0.524-5.251,0.698-8.836c-5.368,3.007-7.907,4.572-12.729,7.784
			c-0.12,3.535-0.236,5.281-0.565,8.726C253.688,328.744,256.206,327.209,261.515,324.244z"/>
		<path fill="#ED1C24" d="M26.853,259.646c-0.391,5.64-0.474,8.392-0.423,13.771c6.64,1.511,13.229,3.241,19.739,5.2
			c0.007-5.25,0.119-7.945,0.56-13.438C40.174,263.11,33.542,261.267,26.853,259.646z"/>
		<path fill="#ED1C24" d="M79.981,291.345c0.133-5.018,0.294-7.576,0.837-12.79c-5.478-2.613-8.329-3.872-14.264-6.267
			c-0.498,5.335-0.644,7.948-0.712,13.064C71.727,287.639,74.551,288.844,79.981,291.345z"/>
		<path fill="#ED1C24" d="M236.422,340.998c0.236-3.309,0.328-5.078,0.393-8.561c-4.625,3.709-6.779,5.6-10.79,9.326
			c0.005,3.34-0.036,4.994-0.211,8.264C229.77,346.338,231.882,344.523,236.422,340.998z"/>
		<path fill="#ED1C24" d="M44.219,302.213c-0.743-4.506-1.028-6.812-1.432-11.537c-5.185-1.412-10.416-2.683-15.677-3.814
			c0.449,4.793,0.764,7.135,1.564,11.699C35.103,299.886,38.213,300.621,44.219,302.213z"/>
		<path fill="#ED1C24" d="M62.64,296.916c0.329,4.627,0.585,6.899,1.25,11.338c5.857,2.142,11.647,4.346,17.345,6.871
			c-0.584-4.369-0.802-6.6-1.054-11.135C74.377,301.474,68.576,299.135,62.64,296.916z"/>
		<path fill="#ED1C24" d="M28.452,244.834c6.737,1.756,13.407,3.738,19.997,5.944c0.835-5.267,1.346-7.951,2.572-13.417
			c-6.62-2.35-13.32-4.466-20.094-6.368C29.735,236.644,29.245,239.41,28.452,244.834z"/>
		<path fill="#ED1C24" d="M71.096,245.344c-1.269,5.279-1.802,7.873-2.681,12.97c5.98,2.621,11.831,5.348,17.668,8.25
			c0.921-4.937,1.48-7.445,2.79-12.547C83.005,250.969,77.118,248.104,71.096,245.344z"/>
		<path fill="#ED1C24" d="M161.524,228.606c-3.69,5.429-7.143,11.005-10.324,16.716c3.857,3.826,7.571,7.779,11.116,11.869
			c3.3-5.458,6.726-10.752,10.356-16.016C169.122,236.859,165.398,232.67,161.524,228.606z"/>
		<path fill="#ED1C24" d="M147.575,281.077c2.015-5.1,3.132-7.677,5.622-12.841c-3.419-3.685-5.219-5.509-9.029-9.123
			c-2.476,5.333-3.586,7.986-5.578,13.234C142.378,275.798,144.17,277.55,147.575,281.077z"/>
		<path fill="#ED1C24" d="M115.54,284.578c1.011-4.646,1.605-7.005,3.002-11.765c-4.287-3.195-8.697-6.251-13.219-9.141
			c-1.351,4.914-1.927,7.336-2.903,12.122C107.942,279.217,110.569,280.979,115.54,284.578z"/>
		<path fill="#ED1C24" d="M115.251,235.669c-2.458,5.692-3.561,8.5-5.519,14.029c5.453,3.774,10.736,7.631,15.957,11.687
			c2.011-5.298,3.091-8.084,5.542-13.648C126.06,243.529,120.71,239.522,115.251,235.669z"/>
		<path fill="#ED1C24" d="M131.749,283.477c-1.439,4.6-2.059,6.878-3.12,11.397c4.791,4.083,7.021,6.167,11.218,10.353
			c1.099-4.38,1.731-6.603,3.152-11.191C138.822,289.836,136.577,287.707,131.749,283.477z"/>
		<path fill="#ED1C24" d="M45.776,180.011c7.031,2.65,13.98,5.517,20.819,8.603c2.972-7.207,6.332-14.227,9.838-21.216
			c-6.882-3.407-13.882-6.599-20.973-9.572C52.012,165.148,48.783,172.513,45.776,180.011z"/>
		<path fill="#ED1C24" d="M122.173,220.728c5.504,4.008,10.861,8.218,16.022,12.628c3.152-5.965,6.579-11.799,10.263-17.489
			c-5.188-4.705-10.559-9.218-16.109-13.532C128.693,208.328,125.299,214.462,122.173,220.728z"/>
		<path fill="#ED1C24" d="M87.318,198.849c6.156,3.327,12.224,6.817,18.135,10.542c3.14-6.539,6.5-12.981,10.094-19.302
			c-5.936-4.033-12.053-7.814-18.262-11.453C93.664,185.233,90.325,191.979,87.318,198.849z"/>
		<path fill="#ED1C24" d="M126.225,307.336c-0.729,4.806-0.984,7.183-1.315,11.867c4.674,3.844,6.852,5.814,10.938,9.777
			c0.397-4.604,0.681-6.928,1.459-11.611C133.168,313.303,130.957,311.287,126.225,307.336z"/>
		<path fill="#ED1C24" d="M96.361,312.093c0.188,4.46,0.362,6.648,0.863,10.95c5.229,2.99,10.376,6.017,15.339,9.388
			c-0.411-4.238-0.551-6.393-0.654-10.768C106.876,318.234,101.662,315.147,96.361,312.093z"/>
		<path fill="#ED1C24" d="M75.27,230.3c6.085,2.854,12.057,5.925,17.894,9.209c1.646-4.923,3.459-9.799,5.417-14.622
			c-5.857-3.481-11.86-6.75-17.985-9.798C78.658,220.106,76.886,225.182,75.27,230.3z"/>
		<path fill="#ED1C24" d="M124.53,331.082c0.041,4.301,0.145,6.475,0.459,10.535c4.511,3.572,6.61,5.402,10.539,9.129
			c-0.231-4.023-0.275-6.053-0.233-10.184C131.3,336.783,129.141,334.842,124.53,331.082z"/>
		<path fill="#ED1C24" d="M97.353,287.231c-0.608,5.083-0.798,7.583-0.998,12.492c5.368,3.135,10.648,6.313,15.747,9.839
			c0.27-4.788,0.499-7.223,1.17-12.162C108.052,293.853,102.784,290.496,97.353,287.231z"/>
		<path fill="#ED1C24" d="M34.782,214.748c6.82,2.209,13.611,4.464,20.302,7.004c1.586-5.353,3.411-10.634,5.11-15.953
			c-6.809-2.855-13.723-5.486-20.715-7.9C37.795,203.49,36.167,209.078,34.782,214.748z"/>
		<path display="none" fill="#ED1C24" d="M144.828,350.42c-0.111,4.063-0.09,6.068,0.066,10.041
			c3.833,4.373,5.577,6.596,8.771,11.088c-0.08-3.92-0.066-5.895,0.11-9.895C150.524,357.105,148.737,354.85,144.828,350.42z"/>
		<path display="none" fill="#ED1C24" d="M170.625,392.393c-0.331,3.928-0.445,5.883-0.552,9.781
			c1.749,4.426,2.502,6.645,3.845,11.096c0.157-3.867,0.277-5.809,0.639-9.691C173.193,399.092,172.413,396.857,170.625,392.393z"/>
		<path fill="#ED1C24" d="M90.083,99.894c7.126,3.886,14.131,7.907,21.06,12.104c4.349-5.839,8.867-11.562,13.545-17.162
			c-6.957-4.541-13.995-8.907-21.164-13.139C98.873,87.649,94.392,93.716,90.083,99.894z"/>
		<path display="none" fill="#ED1C24" d="M173.896,371.088c-0.96,4.234-1.351,6.34-1.995,10.547
			c1.819,4.523,2.623,6.789,4.009,11.313c0.673-4.15,1.075-6.232,2.045-10.402C176.548,377.965,175.746,375.672,173.896,371.088z"/>
		<path display="none" fill="#ED1C24" d="M188.982,383.602c-0.619-4.195-0.989-6.295-1.92-10.518
			c-1.499,3.785-2.162,5.676-3.361,9.461c0.933,4.166,1.315,6.248,1.951,10.393C186.832,389.197,187.495,387.328,188.982,383.602z"
			/>
		<path display="none" fill="#ED1C24" d="M180.194,350.414c-1.521,3.918-2.191,5.879-3.395,9.787c1.86,4.66,2.67,6.99,4.081,11.633
			c1.203-3.836,1.877-5.758,3.394-9.605C182.863,357.516,182.055,355.154,180.194,350.414z"/>
		<path fill="#ED1C24" d="M132.109,125.944c6.278,4.587,12.479,9.253,18.464,14.188c4.394-5.17,8.953-10.217,13.663-15.133
			c-5.999-5.251-12.209-10.243-18.509-15.156C141.024,115.085,136.488,120.455,132.109,125.944z"/>
		<path fill="#ED1C24" d="M183.782,171.688c4.47-4.527,9.011-8.936,13.665-13.284c-5.187-6.019-10.649-11.779-16.212-17.479
			c-4.71,4.604-9.274,9.342-13.681,14.207C173.119,160.519,178.577,165.974,183.782,171.688z"/>
		<path fill="#ED1C24" d="M254.16,116.955c6.335-3.704,12.787-7.219,19.35-10.553c-5.043-7.546-10.344-14.937-15.884-22.16
			c-6.608,3.715-13.101,7.614-19.476,11.689C243.729,102.77,249.067,109.785,254.16,116.955z"/>
		<path display="none" fill="#ED1C24" d="M199.152,363.066c-0.54-4.311-0.889-6.482-1.756-10.838
			c-2.469,4.111-3.583,6.17-5.623,10.289c0.899,4.287,1.26,6.42,1.841,10.668C195.622,369.129,196.722,367.107,199.152,363.066z"/>
		<path fill="#ED1C24" d="M214.54,143.896c6.025-4.75,12.213-9.297,18.569-13.635c-5.208-6.721-10.562-13.285-16.11-19.751
			c-6.348,4.792-12.598,9.66-18.634,14.8C203.926,131.386,209.311,137.56,214.54,143.896z"/>
		<path display="none" fill="#ED1C24" d="M200.329,381.881c-0.003-3.154-0.036-4.736-0.206-7.932
			c-2.359,4.064-3.43,6.082-5.406,10.076c0.226,3.232,0.296,4.857,0.347,7.979C196.962,387.93,198.013,385.906,200.329,381.881z"/>
		<path fill="#ED1C24" d="M181.686,38.702c6.457-5.199,13.004-10.257,19.682-15.208c-6.929-6.254-14.048-12.32-21.341-18.189
			c-6.675,5.355-13.237,10.813-19.689,16.412C167.624,27.182,174.739,32.843,181.686,38.702z"/>
		<path display="none" fill="#ED1C24" d="M184.637,421.768c-0.153-3.131-0.271-4.705-0.565-7.848
			c-0.95,4.055-1.356,6.082-2.028,10.148c0.312,3.127,0.432,4.689,0.609,7.818C183.314,427.828,183.703,425.809,184.637,421.768z"/>
		<path display="none" fill="#ED1C24" d="M180.627,434.504c-0.403,3.826-0.553,5.744-0.77,9.578c0.307,3.119,0.427,4.68,0.623,7.811
			c0.224-3.838,0.374-5.758,0.769-9.586C181.063,439.186,180.943,437.625,180.627,434.504z"/>
		<path display="none" fill="#ED1C24" d="M180.775,393.117c-0.972,4.121-1.383,6.18-2.061,10.291
			c0.938,4.08,1.329,6.121,1.983,10.201c0.683-4.084,1.085-6.127,2.053-10.207C182.107,399.295,181.719,397.236,180.775,393.117z"/>
		<path fill="#ED1C24" d="M120.48,61.335c7.209,4.644,14.276,9.418,21.259,14.362c6.081-6.293,12.281-12.425,18.657-18.448
			c-6.996-5.363-14.092-10.556-21.325-15.625C132.678,48.016,126.47,54.587,120.48,61.335z"/>
		<path fill="#ED1C24" d="M181.364,108.275c6.101-5.47,12.31-10.769,18.682-15.95c-6.048-5.979-12.203-11.798-18.531-17.507
			c-6.37,5.587-12.58,11.286-18.675,17.148C169.156,97.271,175.321,102.691,181.364,108.275z"/>
		<path fill="#ED1C24" d="M221.278,76.488c6.4-4.45,12.947-8.665,19.569-12.808c-5.929-6.827-12.067-13.481-18.414-19.96
			c-6.648,4.532-13.182,9.174-19.638,13.96C209.152,63.771,215.32,70.041,221.278,76.488z"/>
		<path display="none" fill="#ED1C24" d="M177.314,413.949c-0.391,3.857-0.523,5.785-0.71,9.637c0.9,4.025,1.279,6.049,1.916,10.096
			c0.204-3.834,0.354-5.756,0.754-9.598C178.627,420.025,178.244,418,177.314,413.949z"/>
		<path display="none" fill="#ED1C24" d="M190.625,402.264c-0.111-3.176-0.198-4.768-0.442-7.955c-1.458,3.688-2.1,5.531-3.269,9.24
			c0.272,3.162,0.376,4.746,0.509,7.896C188.563,407.762,189.195,405.924,190.625,402.264z"/>
		<path fill="#ED1C24" d="M65.407,138.852c7.128,3.34,14.182,6.772,21.106,10.488c3.749-6.102,7.388-12.249,11.31-18.251
			c-6.877-3.908-13.918-7.517-20.99-11.101C72.837,126.169,69.025,132.457,65.407,138.852z"/>
		<path fill="#ED1C24" d="M215.812,340.354c-0.421-4.41-0.7-6.689-1.48-11.25c-3.547,4.047-6.895,8.248-10.018,12.598
			c0.839,4.443,1.166,6.66,1.647,10.979C209.002,348.404,212.294,344.289,215.812,340.354z"/>
		<path display="none" fill="#ED1C24" d="M216.379,359.668c0.114-3.236,0.14-4.859,0.076-8.156
			c-4.256,4.766-6.181,7.195-9.679,12.111c0.123,3.238,0.145,4.838,0.089,8.027C210.304,366.781,212.193,364.379,216.379,359.668z"
			/>
		<path fill="#ED1C24" d="M277.898,154.365c6.357-3.226,12.823-6.263,19.373-9.117c-3.453-6.38-7.109-12.665-10.947-18.848
			c-6.529,3.113-12.992,6.381-19.356,9.791C270.686,142.203,274.386,148.242,277.898,154.365z"/>
		<path fill="#ED1C24" d="M211.84,317.262c-1.289-5.229-2.045-7.897-3.839-13.275c-3.636,4.268-7.049,8.71-10.229,13.313
			c1.829,5.204,2.609,7.785,3.944,12.867C204.852,325.703,208.233,321.393,211.84,317.262z"/>
		<path fill="#ED1C24" d="M226.939,233.105c4.369-3.521,8.854-6.901,13.456-10.142c-2.878-5.758-5.876-11.396-9.037-17.017
			c-4.635,3.472-9.14,7.082-13.526,10.826C221.02,222.165,224.042,227.571,226.939,233.105z"/>
		<path fill="#ED1C24" d="M238.566,177.567c5.971-4.129,12.1-8.048,18.383-11.744c-3.465-5.907-7.101-11.714-10.913-17.422
			c-6.311,4-12.479,8.215-18.478,12.642C231.398,166.449,235.068,171.958,238.566,177.567z"/>
		<path fill="#ED1C24" d="M194.712,340.982c-1.377-4.891-2.162-7.35-4.015-12.422c-2.519,4.408-3.661,6.586-5.734,10.875
			c1.86,4.84,2.671,7.246,4.057,12.045C191.082,347.283,192.217,345.184,194.712,340.982z"/>
		<path fill="#ED1C24" d="M257.195,211.933c5.924-3.59,12-6.95,18.18-10.129c-2.669-6.33-5.608-12.553-8.788-18.659
			c-6.243,3.468-12.38,7.14-18.358,11.016C251.407,199.999,254.402,205.925,257.195,211.933z"/>
		<path fill="#ED1C24" d="M202.065,256.393c3.678-4.007,7.499-7.885,11.483-11.62c-2.849-5.335-5.978-10.483-9.179-15.625
			c-3.997,3.957-7.848,8.051-11.527,12.273C196.122,246.292,199.211,251.289,202.065,256.393z"/>
		<path fill="#ED1C24" d="M203.297,291.415c-2.059-4.946-3.205-7.445-5.736-12.461c-3.688,4.588-7.142,9.346-10.347,14.244
			c2.549,4.81,3.7,7.208,5.788,11.971C196.193,300.426,199.633,295.835,203.297,291.415z"/>
		<path display="none" fill="#ED1C24" d="M160.517,372.027c-0.235,3.938-0.275,5.887-0.261,9.768
			c2.339,4.027,3.4,6.055,5.326,10.123c0.034-3.838,0.123-5.848,0.424-9.818C164.001,378.088,162.91,376.105,160.517,372.027z"/>
		<path display="none" fill="#ED1C24" d="M163.426,350.16c-0.905,4.379-1.273,6.557-1.854,10.891
			c2.46,4.051,3.578,6.088,5.617,10.15c0.615-4.27,0.995-6.408,1.936-10.715C167.056,356.357,165.916,354.293,163.426,350.16z"/>
		<path fill="#ED1C24" d="M169.567,328.553c-1.507,4.201-2.174,6.26-3.351,10.318c2.527,4.217,3.676,6.332,5.759,10.539
			c1.2-3.977,1.863-5.969,3.386-9.971C173.263,335.15,172.104,332.969,169.567,328.553z"/>
		<path fill="#ED1C24" d="M180.074,305.126c-2.535,4.655-3.684,6.976-5.759,11.614c2.553,4.529,3.719,6.79,5.819,11.312
			c2.07-4.521,3.218-6.783,5.753-11.309C183.79,312.111,182.624,309.785,180.074,305.126z"/>
		<path fill="#ED1C24" d="M182.951,227.851c3.685-4.434,7.531-8.736,11.547-12.904c-3.564-4.744-7.33-9.311-11.155-13.862
			c-3.963,4.448-7.866,8.908-11.556,13.564C175.664,218.924,179.384,223.327,182.951,227.851z"/>
		<path fill="#ED1C24" d="M208.001,201.879c4.421-3.985,9.001-7.785,13.589-11.594c-3.584-5.309-7.259-10.512-11.069-15.676
			c-4.648,4.083-9.179,8.232-13.647,12.503C200.652,191.995,204.372,196.897,208.001,201.879z"/>
		<path fill="#ED1C24" d="M296.16,192.019c6.282-2.694,12.658-5.198,19.106-7.508c-2.593-6.877-5.44-13.663-8.521-20.352
			c-6.503,2.58-12.922,5.349-19.243,8.303C290.643,178.875,293.528,185.398,296.16,192.019z"/>
		<path fill="#ED1C24" d="M142.519,186.697c5.549,4.668,10.948,9.52,16.169,14.516c3.778-4.887,7.623-9.695,11.548-14.474
			c-5.19-5.398-10.606-10.601-16.217-15.605C150.071,176.26,146.248,181.421,142.519,186.697z"/>
		<path fill="#ED1C24" d="M107.32,161.256c6.252,3.877,12.37,7.965,18.311,12.262c3.639-5.583,7.466-11.058,11.448-16.424
			c-5.964-4.599-12.109-8.99-18.401-13.177C114.713,149.589,110.932,155.37,107.32,161.256z"/>
	</g>
</g>
</svg>
