<?xml version="1.0" encoding="utf-8"?>
<!-- Generator: Adobe Illustrator 16.0.0, SVG Export Plug-In . SVG Version: 6.00 Build 0)  -->
<!DOCTYPE svg PUBLIC "-//W3C//DTD SVG 1.1//EN" "http://www.w3.org/Graphics/SVG/1.1/DTD/svg11.dtd">
<svg version="1.1" id="Layer_1" xmlns="http://www.w3.org/2000/svg" xmlns:xlink="http://www.w3.org/1999/xlink" x="0px" y="0px"
	 width="459px" height="470.246px" viewBox="0 0 459 470.246" enable-background="new 0 0 459 470.246" xml:space="preserve">
<g>
	<g>
		<path fill-rule="evenodd" clip-rule="evenodd" fill="#FFFFFF" d="M-0.465,371.257c153.658-0.003,307.32-0.003,460.985-0.007
			c0.003,33.324,0.003,66.652,0.007,99.984c-153.658,0.004-307.319,0.004-460.985,0.008C-0.461,437.918-0.461,404.589-0.465,371.257
			z M58.92,462.068c0-17.564,0-34.736,0-51.908c0.431-0.176,0.862-0.353,1.293-0.528c4.566,5.62,9.144,11.231,13.693,16.864
			c5.66,7.007,11.921,7.113,17.691,0.213c2.344-2.803,4.534-5.732,6.85-8.561c2.328-2.843,4.725-5.631,7.09-8.443
			c0.39,0.188,0.779,0.377,1.168,0.564c0,17.21,0,34.42,0,51.742c5.805,0,11.057,0,16.535,0c0-26.632,0-53.012,0-79.288
			c-10.449-2.053-19.105-1.13-25.139,9.251c-4.007,6.893-9.865,12.708-15.203,19.393c-1.62-1.963-2.787-3.344-3.918-4.754
			c-5.719-7.129-11.374-14.31-17.187-21.36c-1.071-1.3-2.706-2.856-4.181-2.968c-4.907-0.373-9.86-0.141-14.883-0.141
			c0,26.988,0,53.359,0,79.924C48,462.068,52.947,462.068,58.92,462.068z M247.373,462.26c-5.429-9.843-10.355-18.776-15.381-27.889
			c1.497-0.796,2.348-1.262,3.209-1.703c10.645-5.445,16.613-16.295,15.057-27.375c-1.64-11.674-10.619-21.176-22.556-22.797
			c-6.054-0.821-12.298-0.264-18.456-0.295c-5.264-0.027-10.527-0.006-15.082-0.006c-4.367,14.369,3.229,24.904,10.207,36.441
			c-4.393,0-7.49,0-10.867,0c0,8.708,0,16.937,0,25.36c5.448,0,10.648,0,16.219,0c0-2.996,0-5.616,0-10.021
			c2.398,1.821,4.158,2.543,4.936,3.848c4.164,6.996,7.978,14.199,12.173,21.174c0.86,1.43,2.769,2.998,4.3,3.115
			C236.238,462.502,241.393,462.26,247.373,462.26z M348.074,462.263c1.476,0,3.002-0.23,4.434,0.04
			c5.558,1.053,8.11-1.414,10.069-6.592c5.685-15.02,12.001-29.802,18.048-44.686c3.839-9.447,7.641-18.909,11.512-28.496
			c-25.758,0-50.926,0-76.563,0C326.492,409.318,337.228,435.653,348.074,462.263z M147.867,435.273
			c5.199,0,9.658,0.008,14.118-0.002c12.872-0.025,24.804-9.915,26.418-21.888c1.945-14.423-5.878-27.88-19.858-29.957
			c-11.953-1.776-24.379-0.368-37.59-0.368c0.583,5.91,0.256,12.363,2.059,18.152c1.816,5.83,5.748,11,9.08,17.053
			c-3.991,0.209-7.189,0.375-10.27,0.535c0,14.756,0,28.972,0,43.209c5.472,0,10.568,0,16.043,0
			C147.867,453.201,147.867,444.631,147.867,435.273z M413.647,398.924c11.804,0,23.066,0,34.511,0c0-5.855,0-11.204,0-16.428
			c-17.348,0-34.275,0-51.227,0c0,19.683,0,39.061,0,58.467c17.308,0,34.23,0,51.288,0c0-5.65,0-11.023,0-16.699
			c-5.995,0-11.638,0-17.282,0c-5.762,0-11.522,0-17.531,0c0.134-2.515,0.227-4.255,0.334-6.285c5.34,0,10.166,0.162,14.969-0.112
			c1.217-0.069,3.242-1.408,3.369-2.366c0.426-3.212,0.162-6.516,0.162-10.326c-6.674,0-12.592,0-18.593,0
			C413.647,402.996,413.647,401.375,413.647,398.924z M288.477,442.211c16.631-0.006,29.701-13.367,30.166-29.908
			c0.42-15.018-13.721-30.611-30.338-30.414c-14.67,0.174-30.347,11.602-30.464,30.366
			C257.732,429.6,273.115,443.219,288.477,442.211z M13.633,441.227c4.75,0,9.224,0.188,13.66-0.137
			c1.05-0.077,2.82-1.865,2.83-2.88c0.175-17.661,0.166-35.325,0.023-52.987c-0.008-1.007-1.46-2.814-2.322-2.865
			c-4.746-0.283-9.519-0.136-14.191-0.136C13.633,402.229,13.633,421.49,13.633,441.227z M257.885,461.998
			c20.437,0,40.316,0,60.252,0c0-4.289,0-8.304,0-12.281c-20.271,0-40.135,0-60.252,0
			C257.885,453.906,257.885,457.803,257.885,461.998z M396.695,461.918c17.503,0,34.54,0,51.558,0c0-4.257,0-8.166,0-12.141
			c-17.354,0-34.386,0-51.558,0C396.695,453.932,396.695,457.729,396.695,461.918z M10.741,462.008c7.785,0,15.034,0,22.368,0
			c0-4.281,0-8.299,0-12.312c-7.638,0-14.879,0-22.368,0C10.741,453.873,10.741,457.777,10.741,462.008z M192.676,461.986
			c8.695,0,16.894,0,25.698,0c-2.169-3.883-4.002-7.354-6.048-10.691c-0.514-0.838-1.699-1.759-2.601-1.785
			c-5.593-0.162-11.192-0.082-17.05-0.082C192.676,453.84,192.676,457.741,192.676,461.986z"/>
		<path fill-rule="evenodd" clip-rule="evenodd" d="M58.92,462.068c-5.973,0-10.92,0-16.189,0c0-26.564,0-52.936,0-79.924
			c5.022,0,9.976-0.232,14.883,0.141c1.475,0.111,3.109,1.668,4.181,2.968c5.813,7.051,11.468,14.231,17.187,21.36
			c1.131,1.41,2.298,2.791,3.918,4.754c5.338-6.685,11.196-12.5,15.203-19.393c6.033-10.381,14.689-11.304,25.139-9.251
			c0,26.276,0,52.656,0,79.288c-5.479,0-10.73,0-16.535,0c0-17.322,0-34.532,0-51.742c-0.389-0.188-0.778-0.377-1.168-0.564
			c-2.365,2.813-4.762,5.601-7.09,8.443c-2.315,2.828-4.506,5.758-6.85,8.561c-5.771,6.9-12.031,6.794-17.691-0.213
			c-4.55-5.633-9.127-11.244-13.693-16.864c-0.431,0.176-0.862,0.353-1.293,0.528C58.92,427.332,58.92,444.504,58.92,462.068z"/>
		<path fill-rule="evenodd" clip-rule="evenodd" d="M247.373,462.26c-5.98,0-11.135,0.242-16.242-0.146
			c-1.531-0.117-3.439-1.686-4.3-3.115c-4.195-6.975-8.009-14.178-12.173-21.174c-0.777-1.305-2.537-2.026-4.936-3.848
			c0,4.404,0,7.024,0,10.021c-5.57,0-10.771,0-16.219,0c0-8.424,0-16.652,0-25.36c3.377,0,6.475,0,10.867,0
			c-6.979-11.537-14.574-22.072-10.207-36.441c4.555,0,9.818-0.021,15.082,0.006c6.158,0.031,12.402-0.526,18.456,0.295
			c11.937,1.621,20.916,11.123,22.556,22.797c1.557,11.08-4.412,21.93-15.057,27.375c-0.861,0.441-1.712,0.907-3.209,1.703
			C237.018,443.483,241.944,452.417,247.373,462.26z M212.543,399.177c3.523,6.423,6.538,12.235,9.941,17.811
			c0.566,0.929,2.923,1.354,4.281,1.1c4-0.748,6.855-5.143,6.757-9.729c-0.098-4.53-3.222-8.688-7.517-9.095
			C221.814,398.866,217.558,399.177,212.543,399.177z"/>
		<path fill-rule="evenodd" clip-rule="evenodd" d="M348.074,462.263c-10.847-26.609-21.582-52.944-32.5-79.733
			c25.637,0,50.805,0,76.563,0c-3.871,9.587-7.673,19.049-11.512,28.496c-6.047,14.884-12.363,29.666-18.048,44.686
			c-1.959,5.178-4.512,7.645-10.069,6.592C351.076,462.032,349.55,462.263,348.074,462.263z M353.984,432.498
			c5.42-13.423,10.273-25.441,15.279-37.838c-10.694,0-20.399,0-30.752,0C343.635,407.19,348.539,419.182,353.984,432.498z"/>
		<path fill-rule="evenodd" clip-rule="evenodd" d="M147.867,435.273c0,9.357,0,17.928,0,26.734c-5.475,0-10.571,0-16.043,0
			c0-14.237,0-28.453,0-43.209c3.08-0.16,6.278-0.326,10.27-0.535c-3.332-6.053-7.264-11.223-9.08-17.053
			c-1.803-5.789-1.476-12.242-2.059-18.152c13.211,0,25.637-1.408,37.59,0.368c13.98,2.077,21.804,15.534,19.858,29.957
			c-1.614,11.973-13.546,21.862-26.418,21.888C157.525,435.281,153.066,435.273,147.867,435.273z M150.666,399.155
			c3.617,6.546,6.674,12.342,10.062,17.938c0.526,0.87,2.621,1.274,3.897,1.12c3.855-0.469,7.563-5.199,7.663-9.332
			c0.106-4.357-3.586-9.27-7.827-9.644C160.238,398.865,155.957,399.155,150.666,399.155z"/>
		<path fill-rule="evenodd" clip-rule="evenodd" d="M413.647,398.924c0,2.451,0,4.072,0,6.25c6.001,0,11.919,0,18.593,0
			c0,3.811,0.264,7.114-0.162,10.326c-0.127,0.958-2.152,2.297-3.369,2.366c-4.803,0.274-9.629,0.112-14.969,0.112
			c-0.107,2.03-0.2,3.771-0.334,6.285c6.009,0,11.77,0,17.531,0c5.645,0,11.287,0,17.282,0c0,5.676,0,11.049,0,16.699
			c-17.058,0-33.98,0-51.288,0c0-19.406,0-38.784,0-58.467c16.951,0,33.879,0,51.227,0c0,5.224,0,10.572,0,16.428
			C436.714,398.924,425.451,398.924,413.647,398.924z"/>
		<path fill-rule="evenodd" clip-rule="evenodd" d="M288.477,442.211c-15.361,1.008-30.744-12.611-30.636-29.956
			c0.117-18.765,15.794-30.192,30.464-30.366c16.617-0.197,30.758,15.396,30.338,30.414
			C318.178,428.844,305.107,442.205,288.477,442.211z M301.588,412.354c0.059-8.15-5.196-13.697-13.084-13.813
			c-7.399-0.106-13.724,5.93-13.955,13.32c-0.219,6.98,6.355,13.835,13.469,14.043C295.326,426.119,301.533,419.922,301.588,412.354
			z"/>
		<path fill-rule="evenodd" clip-rule="evenodd" d="M13.633,441.227c0-19.736,0-38.997,0-59.005c4.673,0,9.445-0.147,14.191,0.136
			c0.862,0.051,2.314,1.858,2.322,2.865c0.143,17.662,0.151,35.326-0.023,52.987c-0.01,1.015-1.78,2.803-2.83,2.88
			C22.856,441.414,18.383,441.227,13.633,441.227z"/>
		<path fill-rule="evenodd" clip-rule="evenodd" d="M257.885,461.998c0-4.195,0-8.092,0-12.281c20.117,0,39.98,0,60.252,0
			c0,3.978,0,7.992,0,12.281C298.201,461.998,278.321,461.998,257.885,461.998z"/>
		<path fill-rule="evenodd" clip-rule="evenodd" d="M396.695,461.918c0-4.189,0-7.986,0-12.141c17.172,0,34.203,0,51.558,0
			c0,3.975,0,7.884,0,12.141C431.235,461.918,414.198,461.918,396.695,461.918z"/>
		<path fill-rule="evenodd" clip-rule="evenodd" d="M10.741,462.008c0-4.23,0-8.135,0-12.312c7.489,0,14.73,0,22.368,0
			c0,4.013,0,8.03,0,12.312C25.775,462.008,18.526,462.008,10.741,462.008z"/>
		<path fill-rule="evenodd" clip-rule="evenodd" d="M192.676,461.986c0-4.245,0-8.146,0-12.559c5.857,0,11.457-0.08,17.05,0.082
			c0.901,0.026,2.087,0.947,2.601,1.785c2.046,3.338,3.879,6.809,6.048,10.691C209.569,461.986,201.371,461.986,192.676,461.986z"/>
		<path fill-rule="evenodd" clip-rule="evenodd" fill="#FFFFFF" d="M212.543,399.177c5.015,0,9.271-0.311,13.463,0.086
			c4.295,0.406,7.419,4.564,7.517,9.095c0.099,4.587-2.757,8.981-6.757,9.729c-1.358,0.254-3.715-0.171-4.281-1.1
			C219.081,411.412,216.066,405.6,212.543,399.177z"/>
		<path fill-rule="evenodd" clip-rule="evenodd" fill="#FFFFFF" d="M353.984,432.498c-5.445-13.316-10.35-25.308-15.473-37.838
			c10.353,0,20.058,0,30.752,0C364.258,407.057,359.404,419.075,353.984,432.498z"/>
		<path fill-rule="evenodd" clip-rule="evenodd" fill="#FFFFFF" d="M150.666,399.155c5.291,0,9.572-0.29,13.795,0.082
			c4.241,0.374,7.934,5.286,7.827,9.644c-0.101,4.133-3.808,8.863-7.663,9.332c-1.276,0.154-3.371-0.25-3.897-1.12
			C157.34,411.497,154.283,405.701,150.666,399.155z"/>
		<path fill-rule="evenodd" clip-rule="evenodd" fill="#FFFFFF" d="M301.588,412.354c-0.055,7.568-6.262,13.766-13.57,13.551
			c-7.113-0.208-13.688-7.063-13.469-14.043c0.231-7.391,6.556-13.427,13.955-13.32
			C296.392,398.656,301.646,404.203,301.588,412.354z"/>
	</g>
</g>
<defs>
	<filter id="Adobe_OpacityMaskFilter" filterUnits="userSpaceOnUse" x="75.416" y="0" width="307.167" height="446.588">
		<feColorMatrix  type="matrix" values="1 0 0 0 0  0 1 0 0 0  0 0 1 0 0  0 0 0 1 0"/>
	</filter>
</defs>
<mask maskUnits="userSpaceOnUse" x="75.416" y="0" width="307.167" height="446.588" id="SVGID_1_">
	<g filter="url(#Adobe_OpacityMaskFilter)">
		<linearGradient id="SVGID_2_" gradientUnits="userSpaceOnUse" x1="230.835" y1="-3.0112" x2="230.8349" y2="350.5835">
			<stop  offset="0.2849" style="stop-color:#FFFFFF"/>
			<stop  offset="0.4632" style="stop-color:#C1C3C5"/>
			<stop  offset="0.728" style="stop-color:#757679"/>
			<stop  offset="0.9127" style="stop-color:#3F3F40"/>
			<stop  offset="1" style="stop-color:#000000"/>
		</linearGradient>
		<rect x="58.583" y="-3.011" fill="url(#SVGID_2_)" width="344.504" height="353.594"/>
	</g>
</mask>
<g mask="url(#SVGID_1_)">
	<g>
		<path fill="#ED1C24" d="M269.359,253.396c-3.958,3.55-7.76,7.246-11.398,11.073c1.95,4.193,2.844,6.266,4.48,10.402
			c4.246-4.338,6.501-6.477,11.34-10.693C272.17,259.905,271.281,257.746,269.359,253.396z"/>
		<path fill="#ED1C24" d="M344.384,272.042c-5.925,2.352-11.726,4.811-17.51,7.455c0.34,4.128,0.438,6.152,0.504,10.149
			c5.7-2.637,11.512-4.952,17.384-7.214C344.744,278.348,344.671,276.268,344.384,272.042z"/>
		<path fill="#ED1C24" d="M343.304,304.257c0.509-3.587,0.719-5.416,1.013-9.134c-5.813,2.187-11.571,4.408-17.216,6.968
			c-0.236,3.649-0.413,5.449-0.864,8.987C331.842,308.562,337.543,306.389,343.304,304.257z"/>
		<path fill="#ED1C24" d="M381.453,287.172c-5.998,1.282-11.963,2.609-17.873,4.2c-0.306,2.813-0.493,4.197-0.93,6.92
			c5.885-1.563,11.815-2.854,17.782-4.101C380.9,291.431,381.104,290.023,381.453,287.172z"/>
		<path fill="#ED1C24" d="M364.408,278.527c5.975-1.675,11.989-3.083,18.047-4.444c0.186-5.239,0.174-7.937-0.07-13.441
			c-6.105,1.453-12.171,2.953-18.18,4.723C364.496,270.753,364.536,273.382,364.408,278.527z"/>
		<path fill="#ED1C24" d="M201.995,299.645c-1.452,4.444-2.094,6.638-3.208,10.986c4.07,4.743,5.93,7.155,9.35,12.005
			c1.146-4.224,1.8-6.364,3.292-10.665C207.986,307,206.104,304.527,201.995,299.645z"/>
		<path fill="#ED1C24" d="M231.574,248.839c-3.628,5.036-7.059,10.106-10.361,15.336c3.36,4.54,4.916,6.812,7.802,11.357
			c3.212-5.098,6.746-9.935,10.357-14.78C236.489,255.998,234.937,253.606,231.574,248.839z"/>
		<path fill="#ED1C24" d="M196.167,322.562c-0.823,4.571-1.136,6.875-1.591,11.315c3.971,4.52,5.791,6.811,9.105,11.452
			c0.525-4.356,0.867-6.595,1.74-11.063C202.047,329.577,200.218,327.233,196.167,322.562z"/>
		<path fill="#ED1C24" d="M212.336,274.693c-2.516,4.984-3.646,7.47-5.69,12.409c3.365,4.105,6.531,8.352,9.5,12.73
			c2.063-4.762,3.204-7.158,5.729-11.964C218.905,283.346,215.721,278.953,212.336,274.693z"/>
		<path fill="#ED1C24" d="M305.662,260.458c-4.532,2.811-8.952,5.778-13.264,8.9c1.333,4.746,1.899,7.089,2.854,11.716
			c4.997-3.519,7.62-5.239,13.162-8.563C307.501,267.765,306.949,265.351,305.662,260.458z"/>
		<path fill="#ED1C24" d="M288.063,255.906c4.34-3.273,8.807-6.399,13.388-9.366c-1.887-5.512-2.954-8.316-5.332-14
			c-4.589,3.12-9.06,6.412-13.442,9.789C285.028,247.941,286.133,250.576,288.063,255.906z"/>
		<path fill="#ED1C24" d="M282.11,291.156c-1.211-5.441-1.952-8.193-3.71-13.775c-4.854,4.182-7.121,6.311-11.332,10.477
			c1.751,5.553,2.516,8.196,3.788,13.483C275.059,297.218,277.31,295.166,282.11,291.156z"/>
		<path fill="#ED1C24" d="M318.067,236.68c5.917-3.105,11.856-6.03,17.931-8.849c-1.546-5.098-3.253-10.15-5.113-15.148
			c-6.137,2.921-12.153,6.059-18.035,9.421C315.182,228.037,316.218,230.951,318.067,236.68z"/>
		<path fill="#ED1C24" d="M285.56,315.35c-0.279-4.659-0.511-7.015-1.188-11.795c-4.753,3.89-6.973,5.872-11.133,9.872
			c0.729,4.672,0.985,6.981,1.34,11.55C278.677,321.068,280.871,319.132,285.56,315.35z"/>
		<path fill="#ED1C24" d="M362.868,251.235c6.079-1.827,12.15-3.504,18.306-5.076c-0.674-5.52-1.574-11.013-2.672-16.469
			c-6.192,1.716-12.309,3.54-18.414,5.509C361.22,240.507,362.154,245.859,362.868,251.235z"/>
		<path fill="#ED1C24" d="M311.312,297.903c-0.16-4.85-0.329-7.312-0.886-12.32c-5.493,3.192-8.1,4.85-13.05,8.245
			c0.609,4.894,0.813,7.309,1.032,12.062C303.3,302.594,305.873,300.992,311.312,297.903z"/>
		<path fill="#ED1C24" d="M325.227,266.145c5.839-2.766,11.69-5.366,17.681-7.841c-0.774-5.208-1.746-10.387-2.933-15.52
			c-6.029,2.64-11.932,5.395-17.816,8.332C323.669,257.246,324.281,260.256,325.227,266.145z"/>
		<path fill="#ED1C24" d="M356.222,219.702c6.149-2.13,12.307-4.121,18.542-6.015c-1.311-5.609-2.802-11.186-4.468-16.708
			c-6.412,2.109-12.748,4.403-19.005,6.886C352.982,209.131,354.704,214.39,356.222,219.702z"/>
		<path fill="#ED1C24" d="M310.515,318.94c0.39-3.481,0.524-5.252,0.698-8.837c-5.368,3.007-7.907,4.572-12.729,7.784
			c-0.12,3.535-0.236,5.28-0.565,8.727C302.688,323.44,305.206,321.905,310.515,318.94z"/>
		<path fill="#ED1C24" d="M75.853,254.342c-0.391,5.64-0.474,8.392-0.423,13.771c6.64,1.511,13.229,3.241,19.739,5.2
			c0.007-5.25,0.119-7.945,0.56-13.438C89.174,257.806,82.542,255.962,75.853,254.342z"/>
		<path fill="#ED1C24" d="M128.981,286.041c0.133-5.018,0.294-7.576,0.837-12.79c-5.478-2.613-8.329-3.872-14.264-6.267
			c-0.498,5.335-0.644,7.948-0.712,13.064C120.727,282.334,123.551,283.54,128.981,286.041z"/>
		<path fill="#ED1C24" d="M285.422,335.693c0.236-3.309,0.328-5.078,0.393-8.56c-4.625,3.708-6.779,5.6-10.79,9.325
			c0.005,3.34-0.036,4.994-0.211,8.264C278.77,341.033,280.882,339.219,285.422,335.693z"/>
		<path fill="#ED1C24" d="M93.219,296.909c-0.743-4.506-1.028-6.812-1.432-11.537c-5.185-1.412-10.416-2.683-15.677-3.814
			c0.449,4.793,0.764,7.135,1.564,11.699C84.103,294.582,87.213,295.316,93.219,296.909z"/>
		<path fill="#ED1C24" d="M111.64,291.611c0.329,4.627,0.585,6.899,1.25,11.338c5.857,2.142,11.647,4.346,17.345,6.871
			c-0.584-4.369-0.802-6.6-1.054-11.135C123.377,296.17,117.576,293.831,111.64,291.611z"/>
		<path fill="#ED1C24" d="M77.452,239.53c6.737,1.756,13.407,3.738,19.997,5.944c0.835-5.267,1.346-7.951,2.572-13.417
			c-6.62-2.35-13.32-4.466-20.094-6.368C78.735,231.34,78.245,234.106,77.452,239.53z"/>
		<path fill="#ED1C24" d="M120.096,240.04c-1.269,5.279-1.802,7.873-2.681,12.97c5.98,2.621,11.831,5.348,17.668,8.25
			c0.921-4.937,1.48-7.445,2.79-12.547C132.005,245.665,126.118,242.8,120.096,240.04z"/>
		<path fill="#ED1C24" d="M210.524,223.302c-3.69,5.429-7.143,11.005-10.324,16.716c3.857,3.826,7.571,7.779,11.116,11.869
			c3.3-5.458,6.726-10.752,10.356-16.016C218.122,231.555,214.398,227.366,210.524,223.302z"/>
		<path fill="#ED1C24" d="M196.575,275.773c2.015-5.1,3.132-7.677,5.622-12.841c-3.419-3.685-5.219-5.509-9.029-9.123
			c-2.476,5.333-3.586,7.986-5.578,13.234C191.378,270.494,193.17,272.246,196.575,275.773z"/>
		<path fill="#ED1C24" d="M164.54,279.274c1.011-4.646,1.605-7.005,3.002-11.765c-4.287-3.195-8.697-6.251-13.219-9.141
			c-1.351,4.914-1.927,7.336-2.903,12.122C156.942,273.913,159.569,275.674,164.54,279.274z"/>
		<path fill="#ED1C24" d="M164.251,230.365c-2.458,5.692-3.561,8.5-5.519,14.029c5.453,3.774,10.736,7.631,15.957,11.687
			c2.011-5.298,3.091-8.084,5.542-13.648C175.06,238.225,169.71,234.218,164.251,230.365z"/>
		<path fill="#ED1C24" d="M180.749,278.173c-1.439,4.6-2.059,6.878-3.12,11.397c4.791,4.083,7.021,6.167,11.218,10.353
			c1.099-4.38,1.731-6.603,3.152-11.191C187.822,284.532,185.577,282.403,180.749,278.173z"/>
		<path fill="#ED1C24" d="M94.776,174.707c7.031,2.65,13.98,5.517,20.819,8.603c2.972-7.207,6.332-14.227,9.838-21.216
			c-6.882-3.407-13.882-6.599-20.973-9.572C101.012,159.844,97.783,167.208,94.776,174.707z"/>
		<path fill="#ED1C24" d="M171.173,215.424c5.504,4.008,10.861,8.218,16.022,12.628c3.152-5.965,6.579-11.799,10.263-17.489
			c-5.188-4.705-10.559-9.218-16.109-13.532C177.693,203.024,174.299,209.158,171.173,215.424z"/>
		<path fill="#ED1C24" d="M136.318,193.545c6.156,3.327,12.224,6.817,18.135,10.542c3.14-6.539,6.5-12.981,10.094-19.302
			c-5.936-4.033-12.053-7.814-18.262-11.453C142.664,179.929,139.325,186.675,136.318,193.545z"/>
		<path fill="#ED1C24" d="M175.225,302.032c-0.729,4.806-0.984,7.183-1.315,11.867c4.674,3.844,6.852,5.814,10.938,9.777
			c0.397-4.604,0.681-6.929,1.459-11.611C182.168,307.999,179.957,305.982,175.225,302.032z"/>
		<path fill="#ED1C24" d="M145.361,306.789c0.188,4.46,0.362,6.648,0.863,10.95c5.229,2.99,10.376,6.017,15.339,9.388
			c-0.411-4.238-0.551-6.392-0.654-10.768C155.876,312.93,150.662,309.843,145.361,306.789z"/>
		<path fill="#ED1C24" d="M124.27,224.996c6.085,2.854,12.057,5.925,17.894,9.209c1.646-4.923,3.459-9.799,5.417-14.622
			c-5.857-3.481-11.86-6.75-17.985-9.798C127.658,214.802,125.886,219.878,124.27,224.996z"/>
		<path fill="#ED1C24" d="M173.53,325.778c0.041,4.3,0.145,6.474,0.459,10.535c4.511,3.572,6.61,5.401,10.539,9.128
			c-0.231-4.022-0.275-6.053-0.233-10.183C180.3,331.479,178.141,329.537,173.53,325.778z"/>
		<path fill="#ED1C24" d="M146.353,281.927c-0.608,5.083-0.798,7.583-0.998,12.492c5.368,3.135,10.648,6.313,15.747,9.839
			c0.27-4.788,0.499-7.223,1.17-12.162C157.052,288.549,151.784,285.192,146.353,281.927z"/>
		<path fill="#ED1C24" d="M83.782,209.443c6.82,2.209,13.611,4.464,20.302,7.004c1.586-5.353,3.411-10.634,5.11-15.953
			c-6.809-2.855-13.723-5.486-20.715-7.9C86.795,198.186,85.167,203.774,83.782,209.443z"/>
		<path display="none" fill="#ED1C24" d="M193.828,345.115c-0.111,4.063-0.09,6.069,0.066,10.042
			c3.833,4.372,5.577,6.595,8.771,11.088c-0.08-3.921-0.066-5.895,0.11-9.895C199.524,351.801,197.737,349.545,193.828,345.115z"/>
		<path display="none" fill="#ED1C24" d="M219.625,387.088c-0.331,3.928-0.445,5.883-0.552,9.782
			c1.749,4.425,2.502,6.644,3.845,11.096c0.157-3.867,0.277-5.81,0.639-9.692C222.193,393.787,221.413,391.553,219.625,387.088z"/>
		<path fill="#ED1C24" d="M139.083,94.59c7.126,3.886,14.131,7.907,21.06,12.104c4.349-5.839,8.867-11.562,13.545-17.162
			c-6.957-4.541-13.995-8.907-21.164-13.139C147.873,82.345,143.392,88.412,139.083,94.59z"/>
		<path display="none" fill="#ED1C24" d="M222.896,365.784c-0.96,4.234-1.351,6.34-1.995,10.547
			c1.819,4.522,2.623,6.788,4.009,11.313c0.673-4.151,1.075-6.232,2.045-10.402C225.548,372.661,224.746,370.368,222.896,365.784z"
			/>
		<path display="none" fill="#ED1C24" d="M237.982,378.297c-0.619-4.194-0.989-6.295-1.92-10.518
			c-1.499,3.785-2.162,5.677-3.361,9.462c0.933,4.166,1.315,6.247,1.951,10.392C235.832,383.893,236.495,382.023,237.982,378.297z"
			/>
		<path display="none" fill="#ED1C24" d="M229.194,345.109c-1.521,3.919-2.191,5.879-3.395,9.787c1.86,4.66,2.67,6.991,4.081,11.634
			c1.203-3.836,1.877-5.759,3.394-9.606C231.863,352.211,231.055,349.85,229.194,345.109z"/>
		<path fill="#ED1C24" d="M181.109,120.64c6.278,4.587,12.479,9.253,18.464,14.188c4.394-5.17,8.953-10.217,13.663-15.133
			c-5.999-5.251-12.209-10.243-18.509-15.156C190.024,109.781,185.488,115.151,181.109,120.64z"/>
		<path fill="#ED1C24" d="M232.782,166.384c4.47-4.527,9.011-8.936,13.665-13.284c-5.187-6.019-10.649-11.779-16.212-17.479
			c-4.71,4.604-9.274,9.342-13.681,14.207C222.119,155.215,227.577,160.67,232.782,166.384z"/>
		<path fill="#ED1C24" d="M303.16,111.65c6.335-3.704,12.787-7.219,19.35-10.553c-5.043-7.546-10.344-14.937-15.884-22.16
			c-6.608,3.715-13.101,7.614-19.476,11.689C292.729,97.465,298.067,104.48,303.16,111.65z"/>
		<path display="none" fill="#ED1C24" d="M248.152,357.763c-0.54-4.311-0.889-6.483-1.756-10.839
			c-2.469,4.111-3.583,6.17-5.623,10.289c0.899,4.288,1.26,6.421,1.841,10.669C244.622,363.825,245.722,361.803,248.152,357.763z"/>
		<path fill="#ED1C24" d="M263.54,138.592c6.025-4.75,12.213-9.297,18.569-13.635c-5.208-6.721-10.562-13.285-16.11-19.751
			c-6.348,4.792-12.598,9.66-18.634,14.8C252.926,126.082,258.311,132.256,263.54,138.592z"/>
		<path display="none" fill="#ED1C24" d="M249.329,376.577c-0.003-3.155-0.036-4.737-0.206-7.933
			c-2.359,4.064-3.43,6.083-5.406,10.077c0.226,3.232,0.296,4.856,0.347,7.979C245.962,382.626,247.013,380.602,249.329,376.577z"/>
		<path fill="#ED1C24" d="M230.686,33.397c6.457-5.199,13.004-10.257,19.682-15.208C243.438,11.935,236.319,5.869,229.026,0
			c-6.675,5.355-13.237,10.813-19.689,16.412C216.624,21.878,223.739,27.539,230.686,33.397z"/>
		<path display="none" fill="#ED1C24" d="M233.637,416.464c-0.153-3.132-0.271-4.705-0.565-7.848
			c-0.95,4.054-1.356,6.081-2.028,10.148c0.312,3.127,0.432,4.689,0.609,7.817C232.314,422.523,232.703,420.505,233.637,416.464z"/>
		<path display="none" fill="#ED1C24" d="M229.627,429.2c-0.403,3.826-0.553,5.744-0.77,9.577c0.307,3.12,0.427,4.681,0.623,7.811
			c0.224-3.838,0.374-5.757,0.769-9.585C230.063,433.882,229.943,432.32,229.627,429.2z"/>
		<path display="none" fill="#ED1C24" d="M229.775,387.813c-0.972,4.121-1.383,6.179-2.061,10.291
			c0.938,4.08,1.329,6.121,1.983,10.201c0.683-4.084,1.085-6.127,2.053-10.207C231.107,393.991,230.719,391.932,229.775,387.813z"/>
		<path fill="#ED1C24" d="M169.48,56.031c7.209,4.644,14.276,9.418,21.259,14.362c6.081-6.293,12.281-12.425,18.657-18.448
			c-6.996-5.363-14.092-10.556-21.325-15.625C181.678,42.712,175.47,49.283,169.48,56.031z"/>
		<path fill="#ED1C24" d="M230.364,102.971c6.101-5.47,12.31-10.769,18.682-15.95c-6.048-5.979-12.203-11.798-18.531-17.507
			c-6.37,5.587-12.58,11.286-18.675,17.148C218.156,91.966,224.321,97.387,230.364,102.971z"/>
		<path fill="#ED1C24" d="M270.278,71.184c6.4-4.45,12.947-8.665,19.569-12.808c-5.929-6.827-12.067-13.481-18.414-19.96
			c-6.648,4.532-13.182,9.174-19.638,13.96C258.152,58.467,264.32,64.737,270.278,71.184z"/>
		<path display="none" fill="#ED1C24" d="M226.314,408.645c-0.391,3.858-0.523,5.785-0.71,9.637c0.9,4.026,1.279,6.049,1.916,10.097
			c0.204-3.834,0.354-5.757,0.754-9.598C227.627,414.721,227.244,412.696,226.314,408.645z"/>
		<path display="none" fill="#ED1C24" d="M239.625,396.96c-0.111-3.177-0.198-4.768-0.442-7.956c-1.458,3.688-2.1,5.532-3.269,9.241
			c0.272,3.161,0.376,4.745,0.509,7.896C237.563,402.457,238.195,400.619,239.625,396.96z"/>
		<path fill="#ED1C24" d="M114.407,133.547c7.128,3.34,14.182,6.772,21.106,10.488c3.749-6.102,7.388-12.249,11.31-18.251
			c-6.877-3.908-13.918-7.517-20.99-11.101C121.837,120.865,118.025,127.152,114.407,133.547z"/>
		<path fill="#ED1C24" d="M264.812,335.05c-0.421-4.41-0.7-6.69-1.48-11.25c-3.547,4.047-6.895,8.247-10.018,12.598
			c0.839,4.442,1.166,6.659,1.647,10.979C258.002,343.1,261.294,338.985,264.812,335.05z"/>
		<path display="none" fill="#ED1C24" d="M265.379,354.364c0.114-3.236,0.14-4.86,0.076-8.157
			c-4.256,4.767-6.181,7.196-9.679,12.112c0.123,3.237,0.145,4.837,0.089,8.026C259.304,361.478,261.193,359.074,265.379,354.364z"
			/>
		<path fill="#ED1C24" d="M326.898,149.061c6.357-3.226,12.823-6.263,19.373-9.117c-3.453-6.38-7.109-12.665-10.947-18.848
			c-6.529,3.113-12.992,6.381-19.356,9.791C319.686,136.899,323.386,142.938,326.898,149.061z"/>
		<path fill="#ED1C24" d="M260.84,311.958c-1.289-5.229-2.045-7.897-3.839-13.275c-3.636,4.268-7.049,8.71-10.229,13.313
			c1.829,5.204,2.609,7.785,3.944,12.867C253.852,320.399,257.233,316.089,260.84,311.958z"/>
		<path fill="#ED1C24" d="M275.939,227.801c4.369-3.521,8.854-6.901,13.456-10.142c-2.878-5.758-5.876-11.396-9.037-17.017
			c-4.635,3.472-9.14,7.082-13.526,10.826C270.02,216.861,273.042,222.267,275.939,227.801z"/>
		<path fill="#ED1C24" d="M287.566,172.263c5.971-4.129,12.1-8.048,18.383-11.744c-3.465-5.907-7.101-11.714-10.913-17.422
			c-6.311,4-12.479,8.215-18.478,12.642C280.398,161.145,284.068,166.653,287.566,172.263z"/>
		<path fill="#ED1C24" d="M243.712,335.679c-1.377-4.891-2.162-7.35-4.015-12.422c-2.519,4.408-3.661,6.585-5.734,10.874
			c1.86,4.841,2.671,7.246,4.057,12.045C240.082,341.979,241.217,339.879,243.712,335.679z"/>
		<path fill="#ED1C24" d="M306.195,206.629c5.924-3.59,12-6.95,18.18-10.129c-2.669-6.33-5.608-12.553-8.788-18.659
			c-6.243,3.468-12.38,7.14-18.358,11.016C300.407,194.694,303.402,200.621,306.195,206.629z"/>
		<path fill="#ED1C24" d="M251.065,251.089c3.678-4.007,7.499-7.885,11.483-11.62c-2.849-5.335-5.978-10.483-9.179-15.625
			c-3.997,3.957-7.848,8.051-11.527,12.273C245.122,240.988,248.211,245.984,251.065,251.089z"/>
		<path fill="#ED1C24" d="M252.297,286.11c-2.059-4.946-3.205-7.445-5.736-12.461c-3.688,4.588-7.142,9.346-10.347,14.244
			c2.549,4.81,3.7,7.208,5.788,11.971C245.193,295.122,248.633,290.531,252.297,286.11z"/>
		<path display="none" fill="#ED1C24" d="M209.517,366.723c-0.235,3.938-0.275,5.887-0.261,9.768
			c2.339,4.027,3.4,6.056,5.326,10.123c0.034-3.838,0.123-5.847,0.424-9.818C213.001,372.784,211.91,370.802,209.517,366.723z"/>
		<path display="none" fill="#ED1C24" d="M212.426,344.856c-0.905,4.379-1.273,6.557-1.854,10.89
			c2.46,4.052,3.578,6.088,5.617,10.151c0.615-4.271,0.995-6.408,1.936-10.716C216.056,351.053,214.916,348.988,212.426,344.856z"/>
		<path fill="#ED1C24" d="M218.567,323.249c-1.507,4.201-2.174,6.259-3.351,10.318c2.527,4.216,3.676,6.331,5.759,10.538
			c1.2-3.976,1.863-5.969,3.386-9.97C222.263,329.846,221.104,327.665,218.567,323.249z"/>
		<path fill="#ED1C24" d="M229.074,299.822c-2.535,4.655-3.684,6.976-5.759,11.614c2.553,4.529,3.719,6.79,5.819,11.312
			c2.07-4.521,3.218-6.782,5.753-11.309C232.79,306.807,231.624,304.48,229.074,299.822z"/>
		<path fill="#ED1C24" d="M231.951,222.546c3.685-4.434,7.531-8.736,11.547-12.904c-3.564-4.744-7.33-9.311-11.155-13.862
			c-3.963,4.448-7.866,8.908-11.556,13.564C224.664,213.62,228.384,218.022,231.951,222.546z"/>
		<path fill="#ED1C24" d="M257.001,196.575c4.421-3.985,9.001-7.785,13.589-11.594c-3.584-5.309-7.259-10.512-11.069-15.676
			c-4.648,4.083-9.179,8.232-13.647,12.503C249.652,186.69,253.372,191.593,257.001,196.575z"/>
		<path fill="#ED1C24" d="M345.16,186.715c6.282-2.694,12.658-5.198,19.106-7.508c-2.593-6.877-5.44-13.663-8.521-20.352
			c-6.503,2.58-12.922,5.349-19.243,8.303C339.643,173.571,342.528,180.094,345.16,186.715z"/>
		<path fill="#ED1C24" d="M191.519,181.393c5.549,4.668,10.948,9.52,16.169,14.516c3.778-4.887,7.623-9.695,11.548-14.474
			c-5.19-5.398-10.606-10.601-16.217-15.605C199.071,170.956,195.248,176.117,191.519,181.393z"/>
		<path fill="#ED1C24" d="M156.32,155.952c6.252,3.877,12.37,7.965,18.311,12.262c3.639-5.583,7.466-11.058,11.448-16.424
			c-5.964-4.599-12.109-8.99-18.401-13.177C163.713,144.285,159.932,150.066,156.32,155.952z"/>
	</g>
</g>
</svg>
